<svg width="51" height="53" viewBox="0 0 51 53" fill="none" xmlns="http://www.w3.org/2000/svg">
<path d="M25.139 6.40447L12.6595 12.8089V0L25.139 6.40447Z" fill="#4C185F"/>
<path d="M12.8232 12.9339L25.3027 6.52944V19.3384L12.8232 12.9339Z" fill="#582869"/>
<path d="M25.6564 19.5484L38.1359 13.1439V25.9529L25.6564 19.5484Z" fill="#582869"/>
<path d="M38.4616 26.2131L50.9411 19.8086V32.6175L38.4616 26.2131Z" fill="#582869"/>
<path d="M25.794 32.8397L38.2735 26.4352V39.2442L25.794 32.8397Z" fill="#582869"/>
<path d="M0.0149859 19.417L12.4945 13.0125V25.8215L0.0149859 19.417Z" fill="#F77442"/>
<path d="M0.016494 32.5301L12.496 26.1256V38.9346L0.016494 32.5301Z" fill="#F77442"/>
<path d="M12.8174 39.1697L25.2969 32.7653V45.5742L12.8174 39.1697Z" fill="#F77442"/>
<path d="M25.6281 45.8433L38.1075 39.4388V52.2477L25.6281 45.8433Z" fill="#F77442"/>
<path d="M37.968 13.0427L25.4885 19.4472V6.63825L37.968 13.0427Z" fill="#4C185F"/>
<path d="M25.1402 32.6584L12.6607 39.0628V26.2539L25.1402 32.6584Z" fill="#E66839"/>
<path d="M12.4795 25.9754L0 32.3799V19.5709L12.4795 25.9754Z" fill="#E66839"/>
<path d="M25.1402 19.417L12.6607 25.8215V13.0125L25.1402 19.417Z" fill="#E66839"/>
<path d="M37.953 39.3181L25.4735 45.7226V32.9136L37.953 39.3181Z" fill="#E66839"/>
<path d="M50.7987 19.6883L38.3192 26.0928V13.2838L50.7987 19.6883Z" fill="#4C185F"/>
<path d="M50.9391 32.7889L38.4596 39.1934V26.3845L50.9391 32.7889Z" fill="#4C185F"/>
</svg>
